<svg xmlns="http://www.w3.org/2000/svg" viewBox="0 0 40 40" role="img" aria-label="HS">
  <defs>
    <linearGradient
      id="brand-grad"
      x1="8"
      y1="4"
      x2="34"
      y2="36"
      gradientUnits="userSpaceOnUse"
    >
      <stop stop-color="#b84a32" />
      <stop offset="0.45" stop-color="#c45c3e" />
      <stop offset="1" stop-color="#f0b090" />
    </linearGradient>
    <radialGradient
      id="brand-rad"
      cx="32%"
      cy="28%"
      r="75%"
      gradientUnits="userSpaceOnUse"
    >
      <stop offset="0%" stop-color="#ffffff" stop-opacity="0.38" />
      <stop offset="45%" stop-color="#ffffff" stop-opacity="0.09" />
      <stop offset="100%" stop-color="#ffffff" stop-opacity="0" />
    </radialGradient>
  </defs>
  <path
    d="M11 3.5h18a7.5 7.5 0 017.5 7.5v18a7.5 7.5 0 01-7.5 7.5H11a7.5 7.5 0 01-7.5-7.5V11A7.5 7.5 0 0111 3.5z"
    fill="none"
    stroke="url(#brand-grad)"
    stroke-width="1.85"
    stroke-linecap="round"
    stroke-linejoin="round"
  />
  <path
    d="M11 5.5h18a5.5 5.5 0 015.5 5.5v18a5.5 5.5 0 01-5.5 5.5H11a5.5 5.5 0 01-5.5-5.5V11a5.5 5.5 0 015.5-5.5z"
    fill="url(#brand-grad)"
  />
  <path
    d="M11 5.5h18a5.5 5.5 0 015.5 5.5v18a5.5 5.5 0 01-5.5 5.5H11a5.5 5.5 0 01-5.5-5.5V11a5.5 5.5 0 015.5-5.5z"
    fill="url(#brand-rad)"
    pointer-events="none"
  />
  <text
    x="20"
    y="26.9"
    text-anchor="middle"
    fill="rgba(255,255,255,0.96)"
    font-family="Outfit, system-ui, sans-serif"
    font-size="13.4"
    font-weight="800"
    letter-spacing="-0.06em"
  >
    HS
  </text>
  <circle
    cx="31.5"
    cy="8.5"
    r="2.35"
    fill="#fffaf5"
    stroke="#d9735a"
    stroke-width="0.85"
  />
</svg>
